<svg width="25" height="25" viewBox="0 0 25 25" fill="none" xmlns="http://www.w3.org/2000/svg">
<path d="M22.2597 8.09192C22.1457 7.66933 21.9232 7.28393 21.614 6.97409C21.3049 6.66425 20.92 6.44078 20.4977 6.32592C18.9317 5.89592 12.6667 5.88892 12.6667 5.88892C12.6667 5.88892 6.40265 5.88192 4.83565 6.29292C4.41358 6.41307 4.02947 6.6397 3.72022 6.95106C3.41096 7.26242 3.18694 7.64804 3.06965 8.07092C2.65665 9.63692 2.65265 12.8849 2.65265 12.8849C2.65265 12.8849 2.64865 16.1489 3.05865 17.6989C3.28865 18.5559 3.96365 19.2329 4.82165 19.4639C6.40365 19.8939 12.6517 19.9009 12.6517 19.9009C12.6517 19.9009 18.9167 19.9079 20.4827 19.4979C20.9051 19.3833 21.2904 19.1603 21.6003 18.8511C21.9102 18.5419 22.134 18.1572 22.2497 17.7349C22.6637 16.1699 22.6667 12.9229 22.6667 12.9229C22.6667 12.9229 22.6867 9.65792 22.2597 8.09192ZM10.6627 15.8939L10.6677 9.89392L15.8747 12.8989L10.6627 15.8939Z" fill="#0E73AA"/>
</svg>
