<svg width="140" height="57" viewBox="0 0 140 57" fill="none" xmlns="http://www.w3.org/2000/svg">
<path fill-rule="evenodd" clip-rule="evenodd" d="M38.5695 17.1389L27.06 39.6389H16.2493L21.066 30.3139H20.8499C16.8761 35.4724 10.9471 38.8683 2.49927 39.6389V30.443C2.49927 30.443 7.90358 30.1238 11.0806 26.7836H2.49927V17.1391H12.1438V25.0716L12.3602 25.0707L16.3014 17.1391H23.5953V25.0213L23.8116 25.0209L27.9006 17.1389H38.5695Z" fill="black"/>
<path d="M101.332 37.1554H104.438V19.3264H101.332V37.1554Z" fill="black"/>
<path fill-rule="evenodd" clip-rule="evenodd" d="M84.2085 36.9734C84.8835 37.254 85.57 37.3944 86.2678 37.3944C87.4207 37.3944 88.4523 37.1137 89.3626 36.5524C90.2727 35.9911 90.9782 35.2175 91.4788 34.2314C91.9795 33.2377 92.2297 32.1112 92.2297 30.8521C92.2297 29.593 91.9718 28.4666 91.4561 27.473C90.9402 26.4793 90.2235 25.7094 89.3056 25.1633C88.3878 24.6096 87.3448 24.3365 86.1767 24.3441C85.4335 24.3441 84.7205 24.4882 84.0377 24.7764C83.3551 25.0647 82.7862 25.4743 82.3311 26.0052C82.296 26.0457 82.2618 26.0865 82.2287 26.1277V19.3379H79.1112V37.1555H82.206L82.1997 35.491C82.2797 35.5891 82.3653 35.685 82.4562 35.7787C82.9492 36.287 83.5333 36.6851 84.2085 36.9734ZM87.3942 34.0949C86.886 34.4059 86.3057 34.5614 85.6533 34.5614C85.0086 34.5614 84.417 34.402 83.8785 34.0835C83.3398 33.7572 82.9113 33.3136 82.5927 32.7522C82.2817 32.191 82.1262 31.5537 82.1262 30.8407C82.1187 30.1277 82.2703 29.4906 82.5813 28.9293C82.9 28.3604 83.3285 27.9205 83.8671 27.6095C84.4056 27.2909 85.0011 27.1354 85.6533 27.143C86.3057 27.1354 86.886 27.2871 87.3942 27.5981C87.91 27.9015 88.3043 28.3377 88.5775 28.9066C88.8581 29.4679 88.9985 30.1126 88.9985 30.8407C88.9985 31.569 88.8581 32.2137 88.5775 32.775C88.3043 33.3364 87.91 33.7762 87.3942 34.0949Z" fill="black"/>
<path d="M43.0693 20.4073H46.6192L49.7947 32.0043L53.1728 20.4073H56.1311L59.7947 31.7716L62.844 20.4073H66.098L61.2966 37.1555H58.236L54.5105 26.0534L51.0907 37.1555H47.996L43.0693 20.4073Z" fill="black"/>
<path fill-rule="evenodd" clip-rule="evenodd" d="M71.3405 37.4512C70.104 37.4588 68.989 37.1857 67.9954 36.6321C67.0093 36.0707 66.2319 35.2932 65.6629 34.2996C65.1017 33.3059 64.821 32.1719 64.821 30.8976C64.821 29.6612 65.1093 28.5424 65.6858 27.5412C66.2622 26.5399 67.0434 25.7587 68.0295 25.1974C69.0157 24.6361 70.1154 24.3554 71.329 24.3554C72.6944 24.3554 73.889 24.6588 74.913 25.2656C75.9447 25.8724 76.7145 26.7334 77.2228 27.8484C77.7385 28.9558 77.9244 30.2263 77.7803 31.6599H68.0344C68.0617 32.2311 68.2042 32.7507 68.4619 33.2187C68.7502 33.7344 69.1522 34.1364 69.6679 34.4247C70.1838 34.7129 70.7602 34.8571 71.3974 34.8571C71.8828 34.8494 72.3342 34.7661 72.7513 34.6068C73.1685 34.4399 73.5212 34.2162 73.8094 33.9354C74.1053 33.6548 74.3139 33.3363 74.4353 32.9798H77.6893C77.4921 33.8521 77.0977 34.6296 76.506 35.3122C75.9143 35.9873 75.171 36.5144 74.2759 36.8937C73.3809 37.2729 72.4024 37.4588 71.3405 37.4512ZM68.4733 28.531C68.2915 28.848 68.1655 29.1893 68.0954 29.5551H74.5558C74.5089 29.0931 74.3663 28.6721 74.128 28.2921C73.8549 27.8446 73.4833 27.4995 73.013 27.2567C72.5428 27.0064 72.0118 26.8813 71.4202 26.8813C70.7906 26.8813 70.2179 27.0254 69.702 27.3136C69.1863 27.6019 68.7767 28.0077 68.4733 28.531Z" fill="black"/>
<path d="M94.517 24.6171C94.517 23.6007 94.7483 22.6981 95.211 21.9092C95.6736 21.1128 96.3223 20.4946 97.1566 20.0546C97.9985 19.6071 98.9809 19.3758 100.103 19.3606V22.1254C99.58 22.133 99.1325 22.243 98.7609 22.4553C98.3968 22.6601 98.1161 22.9598 97.9189 23.3542C97.7374 23.7173 97.6394 24.1383 97.625 24.6171H100.035V27.2454H97.6232V37.1555H94.517V27.2454H92.5145V24.6171H94.517Z" fill="black"/>
<path fill-rule="evenodd" clip-rule="evenodd" d="M112.334 37.4284C111.067 37.4284 109.933 37.1515 108.932 36.5979C107.938 36.0365 107.157 35.2629 106.588 34.2768C106.027 33.2831 105.746 32.1568 105.746 30.8975C105.746 29.6309 106.027 28.5007 106.588 27.507C107.157 26.5057 107.938 25.7283 108.932 25.1746C109.933 24.6208 111.067 24.344 112.334 24.344C113.608 24.344 114.746 24.6208 115.747 25.1746C116.756 25.7283 117.541 26.502 118.103 27.4956C118.664 28.4893 118.948 29.6233 118.956 30.8975C118.948 32.1568 118.664 33.2831 118.103 34.2768C117.549 35.2629 116.768 36.0365 115.759 36.5979C114.75 37.1515 113.608 37.4284 112.334 37.4284ZM112.334 34.5726C113.002 34.5726 113.593 34.4209 114.109 34.1175C114.625 33.8065 115.023 33.3741 115.304 32.8204C115.584 32.2591 115.725 31.6181 115.725 30.8975C115.725 30.1694 115.584 29.5246 115.304 28.9633C115.023 28.402 114.625 27.9697 114.109 27.6663C113.593 27.3553 113.002 27.1998 112.334 27.1998C111.674 27.1998 111.086 27.3553 110.57 27.6663C110.062 27.9697 109.668 28.402 109.387 28.9633C109.107 29.5246 108.97 30.1694 108.978 30.8975C108.978 31.6181 109.118 32.2591 109.399 32.8204C109.687 33.3741 110.081 33.8065 110.582 34.1175C111.09 34.4209 111.674 34.5726 112.334 34.5726Z" fill="black"/>
<path d="M122.312 24.6171H118.854L122.597 37.1554H125.623L128.085 29.1472L130.743 37.1554H133.724L137.479 24.6171H134.35L132.22 32.4214L129.867 24.6171H126.841L124.499 32.5933L122.312 24.6171Z" fill="black"/>
</svg>
